<svg width="128" height="128" viewBox="0 0 128 128" fill="none" xmlns="http://www.w3.org/2000/svg">
<g clip-path="url(#clip0_107_2)">
<path d="M64 0C115.205 0 128 12.7947 128 64C128 115.205 115.205 128 64 128C12.7947 128 0 115.205 0 64C0 12.7947 12.7947 0 64 0ZM53.4987 99.008C66.96 99.024 78.0533 87.968 78.08 74.5013C78.08 61.056 67.0187 49.9947 53.5733 49.9947C40.128 49.9947 29.0667 61.0613 29.0667 74.5013C29.0667 87.92 40.08 98.9707 53.4987 99.008ZM98 98V30H30V41.984H85.9893V98H98ZM53.4987 62.0107C55.1397 62.0114 56.7645 62.3353 58.2803 62.9639C59.7961 63.5925 61.1732 64.5136 62.3331 65.6744C63.493 66.8353 64.4128 68.2132 65.0402 69.7296C65.6675 71.2459 65.99 72.871 65.9893 74.512C65.9886 76.153 65.6647 77.7778 65.0361 79.2936C64.4075 80.8094 63.4864 82.1866 62.3256 83.3464C61.1647 84.5063 59.7868 85.4262 58.2704 86.0535C56.7541 86.6808 55.129 87.0034 53.488 87.0027C50.1739 87.0013 46.996 85.6834 44.6536 83.3389C42.3111 80.9945 40.9959 77.8155 40.9973 74.5013C40.9987 71.1872 42.3166 68.0093 44.6611 65.6669C47.0056 63.3244 50.1845 62.0093 53.4987 62.0107Z" fill="black"/>
</g>
<defs>
<clipPath id="clip0_107_2">
<rect width="128" height="128" fill="white"/>
</clipPath>
</defs>
</svg>
