<svg width="308" height="308" viewBox="0 0 308 308" fill="none" xmlns="http://www.w3.org/2000/svg">
<path d="M51 256.25C51 227.945 73.9454 205 102.25 205H153.5V256.25C153.5 284.555 130.555 307.5 102.25 307.5C73.9454 307.5 51 284.555 51 256.25Z" fill="#0ACF83"/>
<path d="M153.5 153.75C153.5 125.446 176.445 102.5 204.75 102.5C233.054 102.5 256 125.445 256 153.75C256 182.055 233.054 205 204.75 205C176.445 205 153.5 182.054 153.5 153.75Z" fill="#1ABCFE"/>
<path d="M51 153.75C51 182.055 73.9454 205 102.25 205H153.5V102.5L102.25 102.5C73.9454 102.5 51 125.445 51 153.75Z" fill="#A259FF"/>
<path d="M153.5 0V102.5H204.75C233.055 102.5 256 79.5546 256 51.25C256 22.9454 233.055 0 204.75 0L153.5 0Z" fill="#FF7262"/>
<path d="M51 51.25C51 79.5546 73.9454 102.5 102.25 102.5L153.5 102.5V0L102.25 0C73.9454 0 51 22.9454 51 51.25Z" fill="#F24E1E"/>
</svg>
