<svg width="128" height="128" viewBox="0 0 128 128" fill="none" xmlns="http://www.w3.org/2000/svg">
<path fill-rule="evenodd" clip-rule="evenodd" d="M76.9829 16.2189L23.7438 20.1417C19.4488 20.5106 17.9541 23.314 17.9541 26.6691V84.9025C17.9541 87.5199 18.8843 89.7555 21.1296 92.7418L33.6455 108.982C35.6984 111.596 37.5684 112.157 41.4944 111.965L103.32 108.234C108.549 107.862 110.047 105.434 110.047 101.328V35.8171C110.047 33.6937 109.206 33.081 106.73 31.2752C106.589 31.1716 106.448 31.0679 106.307 30.964L89.3128 19.0191C85.2039 16.036 83.5168 15.6575 76.9829 16.2189ZM42.8961 34.7426C37.8474 35.0826 36.7023 35.1595 33.8348 32.8308L26.544 27.0444C25.7998 26.297 26.1751 25.3636 28.0419 25.1808L79.225 21.4472C83.52 21.0719 85.7621 22.5698 87.4428 23.8721L96.2219 30.2199C96.594 30.4059 97.5274 31.5254 96.408 31.5254L43.5473 34.7009L42.8961 34.7426ZM37.007 100.767V45.1479C37.007 42.723 37.7544 41.6035 39.9965 41.4143L100.703 37.8699C102.762 37.6839 103.696 38.9926 103.696 41.4143V96.6582C103.696 99.0895 103.32 101.142 99.9555 101.328L41.8665 104.69C38.4986 104.876 37.007 103.76 37.007 100.767ZM94.3583 48.1309C94.7304 49.8149 94.3583 51.4957 92.6712 51.6849L89.8742 52.243V93.2999C87.4428 94.6086 85.2007 95.3527 83.3339 95.3527C80.3445 95.3527 79.5971 94.4225 77.355 91.6223L59.0494 62.8825V90.6921L64.8423 91.9976C64.8423 91.9976 64.8423 95.3559 60.1657 95.3559L47.2809 96.1033C46.9056 95.3559 47.2809 93.4891 48.5896 93.1171L51.9511 92.1869V55.4121L47.2809 55.0368C46.9088 53.3561 47.839 50.9311 50.4564 50.7451L64.281 49.8149L83.3339 78.93V53.1732L78.4777 52.6151C78.1024 50.5591 79.5971 49.0643 81.4639 48.8815L94.3583 48.1309Z" fill="white"/>
</svg>
