<svg width="96" height="96" viewBox="0 0 96 96" fill="none" xmlns="http://www.w3.org/2000/svg">
<rect width="96" height="96" rx="24" fill="white"/>
<g filter="url(#filter0_d_202_2)">
<g style="mix-blend-mode:multiply" opacity="0.2">
<g style="mix-blend-mode:multiply" opacity="0.2">
<g style="mix-blend-mode:multiply">
<path d="M78.6398 48V73.76C78.6372 74.1688 78.5538 74.573 78.3944 74.9496C78.235 75.326 78.0026 75.667 77.7108 75.9534C77.4188 76.2396 77.0732 76.4654 76.6938 76.6176C76.3144 76.7696 75.9086 76.8454 75.4998 76.84H33.1198C32.7128 76.8426 32.3092 76.765 31.932 76.6118C31.555 76.4584 31.2116 76.2322 30.922 75.9462C30.6322 75.6602 30.4018 75.32 30.2434 74.9448C30.0852 74.5698 30.0024 74.1672 29.9998 73.76V48C29.9994 48.2416 30.0642 48.4788 30.1874 48.6864C30.3106 48.8942 30.4876 49.0646 30.6998 49.18L33.5798 50.78V22.16C33.5418 21.4046 33.8044 20.6648 34.3104 20.1026C34.8164 19.5402 35.5246 19.2013 36.2798 19.16H72.2798C73.0352 19.2013 73.7434 19.5402 74.2494 20.1026C74.7554 20.6648 75.018 21.4046 74.9798 22.16V50.8L77.9998 49.2C78.204 49.0754 78.3708 48.8982 78.4834 48.6872C78.596 48.4762 78.65 48.239 78.6398 48Z" fill="white"/>
</g>
</g>
</g>
<g style="mix-blend-mode:multiply" opacity="0.12">
<g style="mix-blend-mode:multiply" opacity="0.12">
<g style="mix-blend-mode:multiply">
<path d="M78.6399 48V73.76C78.6373 74.1688 78.5539 74.573 78.3945 74.9496C78.2349 75.326 78.0025 75.667 77.7107 75.9534C77.4189 76.2396 77.0733 76.4654 76.6939 76.6176C76.3145 76.7696 75.9087 76.8454 75.4999 76.84H33.1199C32.7129 76.8426 32.3091 76.765 31.9321 76.6118C31.5549 76.4584 31.2117 76.2322 30.9219 75.9462C30.6323 75.6602 30.4017 75.32 30.2435 74.9448C30.0853 74.5698 30.0025 74.1672 29.9999 73.76V48C29.9995 48.2416 30.0643 48.4788 30.1875 48.6864C30.3107 48.8942 30.4877 49.0646 30.6999 49.18L33.5799 50.78V22.16C33.5417 21.4046 33.8045 20.6648 34.3105 20.1026C34.8165 19.5402 35.5247 19.2013 36.2799 19.16H72.2799C73.0351 19.2013 73.7433 19.5402 74.2493 20.1026C74.7553 20.6648 75.0181 21.4046 74.9799 22.16V50.8L77.9999 49.2C78.2039 49.0754 78.3709 48.8982 78.4835 48.6872C78.5959 48.4762 78.6501 48.239 78.6399 48Z" fill="white"/>
</g>
</g>
</g>
<path d="M78.64 48C78.6446 47.7624 78.5858 47.528 78.4698 47.3206C78.3538 47.1132 78.1848 46.9406 77.98 46.82L57.76 34H57.46C57.0412 33.789 56.579 33.679 56.11 33.679C55.6412 33.679 55.1788 33.789 54.76 34L54.46 34.18L32.46 46.9C32.2502 47.0162 32.076 47.1876 31.9562 47.3956C31.8362 47.6034 31.7754 47.84 31.78 48.08C31.7758 48.3248 31.839 48.5662 31.9624 48.7778C32.0858 48.9894 32.2648 49.163 32.48 49.28L54.48 62L54.78 62.18C55.1988 62.391 55.6612 62.501 56.13 62.501C56.599 62.501 57.0612 62.391 57.48 62.18L57.78 62L78 49.2C78.204 49.0752 78.371 48.8982 78.4836 48.6872C78.5962 48.4762 78.6502 48.239 78.64 48Z" fill="#123B6D"/>
<path d="M48 40.78H33.58V54H48V40.78Z" fill="#0364B8"/>
<path d="M75.04 28.16V22.16C75.0782 21.4046 74.8154 20.6648 74.3094 20.1024C73.8034 19.5402 73.0952 19.2013 72.34 19.16H36.34C35.5848 19.2013 34.8766 19.5402 34.3706 20.1024C33.8646 20.6648 33.6018 21.4046 33.64 22.16V28.16H75.04Z" fill="#0358A7"/>
<path d="M48 28.16H33.58V40.78H48V28.16Z" fill="#0078D4"/>
<path d="M62.42 28.16H48V40.78H62.42V28.16Z" fill="#28A8EA"/>
<path d="M75.04 28.16H62.42V40.78H75.04V28.16Z" fill="#50D9FF"/>
<path d="M75.04 40.78H62.42V54H75.04V40.78Z" fill="#28A8EA"/>
<path d="M62.42 40.78H48V54H62.42V40.78Z" fill="#0078D4"/>
<path d="M62.42 54H48V67.22H62.42V54Z" fill="#0364B8"/>
<path d="M48 54H33.58V66.02H48V54Z" fill="#14447D"/>
<path d="M75.04 54H62.42V67.22H75.04V54Z" fill="#0078D4"/>
<g opacity="0.35">
<g style="mix-blend-mode:multiply" opacity="0.35">
<g style="mix-blend-mode:multiply" opacity="0.35">
<g style="mix-blend-mode:multiply">
<path d="M78 49.18L56.92 62L56.62 62.18C56.1828 62.3894 55.7046 62.4988 55.22 62.5C54.729 62.4984 54.2442 62.3892 53.8 62.18C53.6956 62.1274 53.5954 62.0672 53.5 62L30.7 49.2C30.4848 49.083 30.3058 48.9094 30.1822 48.6978C30.0588 48.4862 29.9958 48.2448 30 48V73.76C30.0026 74.1688 30.086 74.573 30.2454 74.9494C30.405 75.3258 30.6372 75.667 30.9292 75.9534C31.221 76.2396 31.5666 76.4654 31.946 76.6174C32.3254 76.7696 32.7312 76.8452 33.14 76.84H75.5C75.9088 76.8452 76.3146 76.7696 76.694 76.6174C77.0734 76.4654 77.419 76.2396 77.7108 75.9534C78.0026 75.667 78.235 75.3258 78.3944 74.9494C78.554 74.573 78.6374 74.1688 78.64 73.76V48C78.6464 48.2356 78.5908 48.4688 78.4784 48.676C78.366 48.883 78.201 49.057 78 49.18Z" fill="white"/>
</g>
</g>
</g>
</g>
<g opacity="0.06">
<g style="mix-blend-mode:multiply" opacity="0.06">
<g style="mix-blend-mode:multiply" opacity="0.06">
<g style="mix-blend-mode:multiply">
<path d="M78 49.18L56.92 62L56.62 62.18C56.1828 62.3894 55.7046 62.4988 55.22 62.5C54.729 62.4984 54.2442 62.3892 53.8 62.18C53.6956 62.1274 53.5954 62.0672 53.5 62L30.7 49.2C30.4848 49.083 30.3058 48.9094 30.1822 48.6978C30.0588 48.4862 29.9958 48.2448 30 48V73.76C30.0026 74.1688 30.086 74.573 30.2454 74.9494C30.405 75.3258 30.6372 75.667 30.9292 75.9534C31.221 76.2396 31.5666 76.4654 31.946 76.6174C32.3254 76.7696 32.7312 76.8452 33.14 76.84H75.5C75.9088 76.8452 76.3146 76.7696 76.694 76.6174C77.0734 76.4654 77.419 76.2396 77.7108 75.9534C78.0026 75.667 78.235 75.3258 78.3944 74.9494C78.554 74.573 78.6374 74.1688 78.64 73.76V48C78.6464 48.2356 78.5908 48.4688 78.4784 48.676C78.366 48.883 78.201 49.057 78 49.18Z" fill="white"/>
</g>
</g>
</g>
</g>
<path d="M78 49.18L56.92 62L56.62 62.18C56.1828 62.3894 55.7046 62.4988 55.22 62.5C54.729 62.4984 54.2442 62.3892 53.8 62.18C53.6956 62.1274 53.5954 62.0672 53.5 62L30.7 49.2C30.4848 49.083 30.3058 48.9094 30.1822 48.6978C30.0588 48.4862 29.9958 48.2448 30 48V73.76C30.0026 74.1688 30.086 74.573 30.2454 74.9494C30.405 75.3258 30.6372 75.667 30.9292 75.9534C31.221 76.2396 31.5666 76.4654 31.946 76.6174C32.3254 76.7696 32.7312 76.8452 33.14 76.84H75.5C75.9162 76.8512 76.3302 76.777 76.7166 76.6216C77.1028 76.4662 77.453 76.2332 77.7456 75.937C78.0382 75.6408 78.2666 75.2876 78.417 74.8992C78.5674 74.511 78.6366 74.096 78.62 73.68V48C78.6286 48.2336 78.5758 48.4656 78.467 48.6726C78.3584 48.8796 78.1972 49.0546 78 49.18Z" fill="url(#paint0_linear_202_2)"/>
<path d="M33.1 76.84H75.54C76.2014 76.84 76.8458 76.63 77.38 76.24L53.56 61.68L53.26 61.5L30.7 48.42L30 48V73.66C29.9948 74.0724 30.0708 74.4818 30.2236 74.8648C30.3766 75.2476 30.6034 75.5968 30.8914 75.8922C31.1792 76.1874 31.5224 76.423 31.9014 76.5858C32.2804 76.7484 32.6876 76.8348 33.1 76.84Z" fill="url(#paint1_linear_202_2)"/>
<path style="mix-blend-mode:soft-light" opacity="0.75" d="M78.6399 48.1C78.6443 47.8624 78.5857 47.628 78.4697 47.4206C78.3537 47.2132 78.1847 47.0404 77.9799 46.92L75.0799 45.24V22.16C75.1181 21.4046 74.8553 20.6648 74.3493 20.1024C73.8433 19.5402 73.1351 19.2013 72.3799 19.16H36.3799C35.6247 19.2013 34.9165 19.5402 34.4105 20.1024C33.9045 20.6648 33.6417 21.4046 33.6799 22.16V50.8L30.7999 49.2C30.5661 49.097 30.3665 48.9294 30.2247 48.7168C30.0829 48.5042 30.0049 48.2554 29.9999 48V73.76C30.0025 74.1688 30.0859 74.573 30.2455 74.9494C30.4049 75.3258 30.6373 75.667 30.9291 75.9534C31.2209 76.2396 31.5665 76.4652 31.9459 76.6174C32.3253 76.7696 32.7311 76.8452 33.1399 76.84H75.4999C75.9087 76.8452 76.3145 76.7696 76.6939 76.6174C77.0733 76.4652 77.4189 76.2396 77.7107 75.9534C78.0025 75.667 78.2349 75.3258 78.3945 74.9494C78.5539 74.573 78.6373 74.1688 78.6399 73.76V48.1Z" fill="url(#paint2_linear_202_2)"/>
</g>
<g style="mix-blend-mode:multiply" opacity="0.48">
<g style="mix-blend-mode:multiply">
<path d="M45.3 31.78H18.24C16.7489 31.78 15.54 32.9888 15.54 34.48V61.54C15.54 63.0312 16.7489 64.24 18.24 64.24H45.3C46.7912 64.24 48 63.0312 48 61.54V34.48C48 32.9888 46.7912 31.78 45.3 31.78Z" fill="white"/>
</g>
</g>
<g style="mix-blend-mode:multiply" opacity="0.24">
<g style="mix-blend-mode:multiply" opacity="0.24">
<g style="mix-blend-mode:multiply">
<path d="M45.3 31.78H18.2399C16.7487 31.78 15.5399 32.9888 15.5399 34.48V61.54C15.5399 63.0312 16.7487 64.24 18.2399 64.24H45.3C46.791 64.24 48 63.0312 48 61.54V34.48C48 32.9888 46.791 31.78 45.3 31.78Z" fill="white"/>
</g>
</g>
</g>
<g filter="url(#filter1_d_202_2)">
<path d="M45.3 31.78H18.24C16.7489 31.78 15.54 32.9888 15.54 34.48V61.54C15.54 63.0312 16.7489 64.24 18.24 64.24H45.3C46.7912 64.24 48 63.0312 48 61.54V34.48C48 32.9888 46.7912 31.78 45.3 31.78Z" fill="#0F78D4"/>
<g style="mix-blend-mode:soft-light" opacity="0.5">
<path style="mix-blend-mode:soft-light" opacity="0.5" d="M45.3 31.78H18.24C16.7489 31.78 15.54 32.9888 15.54 34.48V61.54C15.54 63.0312 16.7489 64.24 18.24 64.24H45.3C46.7912 64.24 48 63.0312 48 61.54V34.48C48 32.9888 46.7912 31.78 45.3 31.78Z" fill="url(#paint3_linear_202_2)"/>
</g>
<path d="M24.44 43.5401C25.0578 42.2141 26.0616 41.1057 27.32 40.3601C28.7436 39.5523 30.3644 39.1575 32 39.2201C33.4916 39.1869 34.9644 39.5601 36.26 40.3001C37.4646 41.0253 38.4362 42.0801 39.06 43.3401C39.7212 44.7387 40.0432 46.2737 40 47.8201C40.0334 49.4451 39.684 51.0551 38.98 52.5201C38.327 53.8441 37.288 54.9389 36 55.6601C34.6656 56.4341 33.1422 56.8219 31.6 56.7801C30.0796 56.8211 28.5774 56.4403 27.26 55.6801C26.0348 54.9683 25.0468 53.9109 24.42 52.6401C23.7288 51.2641 23.3854 49.7395 23.42 48.2001C23.4 46.5893 23.749 44.9953 24.44 43.5401ZM27.5 51.0401C27.8584 51.8411 28.4248 52.5317 29.14 53.0401C29.8792 53.5519 30.761 53.8177 31.66 53.8001C32.6302 53.8423 33.587 53.5609 34.38 53.0001C35.0876 52.4989 35.636 51.8045 35.96 51.0001C36.317 50.0413 36.4866 49.0229 36.46 48.0001C36.4686 47.0211 36.3132 46.0477 36 45.1201C35.7168 44.2607 35.1884 43.5031 34.48 42.9401C33.711 42.3579 32.7636 42.0609 31.8 42.1001C30.8722 42.0755 29.961 42.3487 29.2 42.8801C28.4746 43.3829 27.9006 44.0745 27.54 44.8801C27.1338 45.8691 26.9364 46.9313 26.96 48.0001C26.9408 49.0389 27.1242 50.0715 27.5 51.0401Z" fill="white"/>
</g>
<defs>
<filter id="filter0_d_202_2" x="25.9998" y="19.16" width="56.6415" height="65.6811" filterUnits="userSpaceOnUse" color-interpolation-filters="sRGB">
<feFlood flood-opacity="0" result="BackgroundImageFix"/>
<feColorMatrix in="SourceAlpha" type="matrix" values="0 0 0 0 0 0 0 0 0 0 0 0 0 0 0 0 0 0 127 0" result="hardAlpha"/>
<feOffset dy="4"/>
<feGaussianBlur stdDeviation="2"/>
<feComposite in2="hardAlpha" operator="out"/>
<feColorMatrix type="matrix" values="0 0 0 0 0 0 0 0 0 0 0 0 0 0 0 0 0 0 0.12 0"/>
<feBlend mode="normal" in2="BackgroundImageFix" result="effect1_dropShadow_202_2"/>
<feBlend mode="normal" in="SourceGraphic" in2="effect1_dropShadow_202_2" result="shape"/>
</filter>
<filter id="filter1_d_202_2" x="15.54" y="31.78" width="40.46" height="40.46" filterUnits="userSpaceOnUse" color-interpolation-filters="sRGB">
<feFlood flood-opacity="0" result="BackgroundImageFix"/>
<feColorMatrix in="SourceAlpha" type="matrix" values="0 0 0 0 0 0 0 0 0 0 0 0 0 0 0 0 0 0 127 0" result="hardAlpha"/>
<feOffset dx="4" dy="4"/>
<feGaussianBlur stdDeviation="2"/>
<feComposite in2="hardAlpha" operator="out"/>
<feColorMatrix type="matrix" values="0 0 0 0 0 0 0 0 0 0 0 0 0 0 0 0 0 0 0.22 0"/>
<feBlend mode="normal" in2="BackgroundImageFix" result="effect1_dropShadow_202_2"/>
<feBlend mode="normal" in="SourceGraphic" in2="effect1_dropShadow_202_2" result="shape"/>
</filter>
<linearGradient id="paint0_linear_202_2" x1="70.98" y1="41.56" x2="37.48" y2="81.48" gradientUnits="userSpaceOnUse">
<stop stop-color="#35B8F1"/>
<stop offset="0.9" stop-color="#0F78D1"/>
</linearGradient>
<linearGradient id="paint1_linear_202_2" x1="53.68" y1="48" x2="53.68" y2="76.84" gradientUnits="userSpaceOnUse">
<stop stop-color="#35B8F1"/>
<stop offset="1" stop-color="#28A8EA"/>
</linearGradient>
<linearGradient id="paint2_linear_202_2" x1="35.8199" y1="19.04" x2="70.9999" y2="79.94" gradientUnits="userSpaceOnUse">
<stop stop-color="white" stop-opacity="0.5"/>
<stop offset="1" stop-opacity="0.7"/>
</linearGradient>
<linearGradient id="paint3_linear_202_2" x1="21.18" y1="29.66" x2="42.36" y2="66.34" gradientUnits="userSpaceOnUse">
<stop stop-color="white" stop-opacity="0.5"/>
<stop offset="1" stop-opacity="0.7"/>
</linearGradient>
</defs>
</svg>
