<svg width="80" height="80" viewBox="0 0 80 80" fill="none" xmlns="http://www.w3.org/2000/svg">
<g clip-path="url(#clip0_302_6105)">
<path d="M17.1341 50.3936C17.1341 54.992 13.4175 58.7085 8.8191 58.7085C4.22068 58.7085 0.50415 54.992 0.50415 50.3936C0.50415 45.7951 4.22068 42.0786 8.8191 42.0786H17.1341V50.3936ZM21.2915 50.3936C21.2915 45.7951 25.0081 42.0786 29.6065 42.0786C34.2049 42.0786 37.9214 45.7951 37.9214 50.3936V71.181C37.9214 75.7794 34.2049 79.4959 29.6065 79.4959C25.0081 79.4959 21.2915 75.7794 21.2915 71.181V50.3936Z" fill="#E01E5A"/>
<path d="M29.6063 17.0078C25.0078 17.0078 21.2913 13.2913 21.2913 8.69284C21.2913 4.09442 25.0078 0.377884 29.6063 0.377884C34.2047 0.377884 37.9212 4.09442 37.9212 8.69284V17.0078H29.6063ZM29.6063 21.2283C34.2047 21.2283 37.9212 24.9448 37.9212 29.5432C37.9212 34.1417 34.2047 37.8582 29.6063 37.8582H8.75587C4.15745 37.8582 0.440918 34.1417 0.440918 29.5432C0.440918 24.9448 4.15745 21.2283 8.75587 21.2283H29.6063Z" fill="#36C5F0"/>
<path d="M62.9295 29.5432C62.9295 24.9448 66.646 21.2282 71.2444 21.2282C75.8428 21.2282 79.5594 24.9448 79.5594 29.5432C79.5594 34.1416 75.8428 37.8582 71.2444 37.8582H62.9295V29.5432ZM58.772 29.5432C58.772 34.1416 55.0555 37.8582 50.457 37.8582C45.8586 37.8582 42.1421 34.1416 42.1421 29.5432V8.6928C42.1421 4.09437 45.8586 0.377838 50.457 0.377838C55.0555 0.377838 58.772 4.09437 58.772 8.6928V29.5432Z" fill="#2EB67D"/>
<path d="M50.457 62.866C55.0555 62.866 58.772 66.5825 58.772 71.181C58.772 75.7794 55.0555 79.4959 50.457 79.4959C45.8586 79.4959 42.1421 75.7794 42.1421 71.181V62.866H50.457ZM50.457 58.7085C45.8586 58.7085 42.1421 54.992 42.1421 50.3936C42.1421 45.7951 45.8586 42.0786 50.457 42.0786H71.3074C75.9058 42.0786 79.6224 45.7951 79.6224 50.3936C79.6224 54.992 75.9058 58.7085 71.3074 58.7085H50.457Z" fill="#ECB22E"/>
</g>
<defs>
<clipPath id="clip0_302_6105">
<rect width="80" height="80" fill="white"/>
</clipPath>
</defs>
</svg>
