<svg width="45" height="45" viewBox="0 0 45 45" fill="none" xmlns="http://www.w3.org/2000/svg">
<g clip-path="url(#clip0_6002_2)">
<g clip-path="url(#clip1_6002_2)">
<path fill-rule="evenodd" clip-rule="evenodd" d="M6.936 29.313L4.58175 30.1732L4.45575 37.176L12.6045 34.2C9.80925 33.261 7.7685 31.6087 6.936 29.313Z" fill="#FDBD39"/>
<path fill-rule="evenodd" clip-rule="evenodd" d="M8.1675 21.906L0 24.8895L4.5825 30.1732L6.936 29.313C6.10575 27.024 6.61725 24.4372 8.1675 21.906Z" fill="#F69833"/>
<path fill-rule="evenodd" clip-rule="evenodd" d="M21.9135 11.8005C11.5117 15.6 4.80599 23.4405 6.93599 29.313L44.6017 15.5535C42.4717 9.68099 32.3145 8.00099 21.9135 11.8005Z" fill="#FECF33"/>
<path fill-rule="evenodd" clip-rule="evenodd" d="M29.625 33.066C40.026 29.2657 46.7437 21.4605 44.6025 15.5535L6.93524 29.313C9.07724 35.22 19.2232 36.8655 29.625 33.066Z" fill="#EE6723"/>
<path fill-rule="evenodd" clip-rule="evenodd" d="M44.6025 15.5535L6.93524 29.313C7.67249 31.347 10.4857 32.349 14.4315 32.349C18.279 32.349 23.2042 31.3972 28.3387 29.5215C38.7397 25.722 46.0575 19.5697 44.601 15.5535" fill="#F69833"/>
<path fill-rule="evenodd" clip-rule="evenodd" d="M37.1055 12.5175C33.258 12.5175 28.3328 13.4692 23.1983 15.345C12.7973 19.1445 5.47951 25.296 6.93601 29.313L44.6018 15.5535C43.8645 13.5195 41.052 12.5175 37.1055 12.5175Z" fill="#FDBD39"/>
<path fill-rule="evenodd" clip-rule="evenodd" d="M35.025 37.5472C33.9165 37.5472 32.2823 36.546 30.165 34.572C27.6623 32.2365 24.7942 28.8157 22.0897 24.939C19.386 21.0637 17.1638 17.1885 15.8332 14.028C14.3842 10.584 14.1772 8.46674 15.219 7.73399C15.4477 7.57349 15.723 7.49249 16.038 7.49249C16.8855 7.49249 18.537 8.12324 21.5903 11.13L21.6578 11.1952L21.648 11.289C21.627 11.505 21.6083 11.7232 21.591 11.937L21.5573 12.3615L21.2573 12.06C17.967 8.74499 16.5188 8.38724 16.0485 8.38724C15.9143 8.38724 15.8078 8.41424 15.7313 8.46824C15.279 8.78549 15.2498 10.341 16.6553 13.6792C17.9625 16.7835 20.1518 20.5995 22.8203 24.4252C25.4903 28.2517 28.314 31.6222 30.7733 33.9157C33.4245 36.3892 34.6193 36.6562 35.0108 36.6562C35.1458 36.6562 35.2545 36.6277 35.3363 36.57C35.8125 36.2355 35.8133 34.569 34.2458 30.975L34.1738 30.8107L34.3313 30.7245C34.4888 30.6382 34.6418 30.5535 34.7843 30.4725L34.9733 30.3652L35.0603 30.564C36.171 33.1102 37.2098 36.3465 35.8478 37.3042C35.6183 37.4655 35.3415 37.5472 35.025 37.5472Z" fill="#EE6723"/>
<path fill-rule="evenodd" clip-rule="evenodd" d="M29.877 32.9587L29.862 33.1537C29.5988 36.408 28.9058 40.3192 27.1005 40.4782C27.0645 40.4812 27.027 40.4827 26.9895 40.4827C25.7625 40.4827 24.6023 38.7255 23.541 35.2605C22.536 31.9815 21.756 27.5805 21.3458 22.8652C20.9348 18.1522 20.9408 13.6807 21.363 10.2765C21.8228 6.56624 22.6988 4.62899 23.9663 4.51724C24.0038 4.51424 24.0428 4.51199 24.081 4.51199C24.9705 4.51199 26.3115 5.51999 27.684 10.212L26.7878 10.3845C26.3295 8.81699 25.83 7.54199 25.3343 6.66449C24.8753 5.85449 24.4298 5.40824 24.0788 5.40824C24.0668 5.40824 24.0555 5.40824 24.0435 5.40974C23.4945 5.45774 22.6943 6.79049 22.2488 10.3867C21.834 13.7302 21.8288 18.1342 22.2338 22.7872C22.6403 27.441 23.4068 31.7775 24.3938 34.9972C24.8355 36.4387 25.32 37.6275 25.7955 38.4337C26.2335 39.1777 26.6573 39.5872 26.9888 39.5872C27 39.5872 27.0113 39.5872 27.0233 39.5857C27.5483 39.54 28.539 38.1532 28.956 33.2745L29.877 32.9587Z" fill="#EE6723"/>
</g>
</g>
<defs>
<clipPath id="clip0_6002_2">
<rect width="45" height="36" fill="white" transform="translate(0 4.5)"/>
</clipPath>
<clipPath id="clip1_6002_2">
<rect width="45" height="36" fill="white" transform="translate(0 4.5)"/>
</clipPath>
</defs>
</svg>
